<?xml version="1.0" encoding="UTF-8" standalone="no"?>
<!-- Created with Inkscape (http://www.inkscape.org/) -->

<svg
   xmlns:dc="http://purl.org/dc/elements/1.1/"
   xmlns:cc="http://creativecommons.org/ns#"
   xmlns:rdf="http://www.w3.org/1999/02/22-rdf-syntax-ns#"
   xmlns:svg="http://www.w3.org/2000/svg"
   xmlns="http://www.w3.org/2000/svg"
   xmlns:sodipodi="http://sodipodi.sourceforge.net/DTD/sodipodi-0.dtd"
   xmlns:inkscape="http://www.inkscape.org/namespaces/inkscape"
   width="892.45312"
   height="481.85934"
   viewBox="0 0 892.45311 481.85933"
   id="svg4669"
   version="1.1"
   inkscape:version="0.91 r13725"
   sodipodi:docname="liquid.svg">
  <defs
     id="defs4671">
    <style
       id="style5221"
       type="text/css"><![CDATA[
    .str0 {stroke:#1F1A17;stroke-width:2.79704}
    .fil0 {fill:#0093DD}
    .fil1 {fill:#0094DE}
    .fil2 {fill:#0097DF}
    .fil3 {fill:#0098E0}
    .fil4 {fill:#009AE0}
    .fil5 {fill:#009CE1}
    .fil6 {fill:#009DE1}
    .fil7 {fill:#009EE2}
    .fil8 {fill:#00A0E2}
    .fil9 {fill:#00A0E3}
    .fil10 {fill:#00A1E3}
    .fil11 {fill:#00A3E4}
    .fil12 {fill:#00A4E5}
    .fil13 {fill:#00A5E5}
    .fil14 {fill:#00A6E6}
    .fil15 {fill:#00A8E6}
    .fil16 {fill:#00A9E7}
    .fil17 {fill:#00AAE7}
    .fil18 {fill:#00ABE7}
    .fil19 {fill:#00ACE8}
    .fil20 {fill:#06ADE8}
    .fil21 {fill:#11AEE8}
    .fil22 {fill:#1CAFE9}
    .fil68 {fill:#1F1A17}
    .fil23 {fill:#21B0E9}
    .fil24 {fill:#28B1E9}
    .fil25 {fill:#2CB1E9}
    .fil26 {fill:#31B2EA}
    .fil27 {fill:#36B3EA}
    .fil28 {fill:#3AB4EA}
    .fil29 {fill:#3EB5EB}
    .fil30 {fill:#41B6EB}
    .fil31 {fill:#45B7EC}
    .fil32 {fill:#48B7EC}
    .fil33 {fill:#4CB8EC}
    .fil34 {fill:#4FB9EC}
    .fil35 {fill:#53BAED}
    .fil36 {fill:#56BBED}
    .fil37 {fill:#5ABCEE}
    .fil38 {fill:#5DBDEE}
    .fil39 {fill:#60BEEE}
    .fil40 {fill:#63BFEF}
    .fil41 {fill:#66C0EF}
    .fil42 {fill:#6AC1EF}
    .fil43 {fill:#6CC2EF}
    .fil44 {fill:#70C3F0}
    .fil45 {fill:#72C4F0}
    .fil46 {fill:#75C5F0}
    .fil47 {fill:#79C6F1}
    .fil48 {fill:#7BC7F1}
    .fil49 {fill:#7FC8F2}
    .fil50 {fill:#81C9F2}
    .fil51 {fill:#84CAF2}
    .fil52 {fill:#87CBF2}
    .fil53 {fill:#8ACDF3}
    .fil54 {fill:#8DCDF3}
    .fil55 {fill:#90CFF3}
    .fil56 {fill:#93D0F4}
    .fil57 {fill:#97D1F4}
    .fil58 {fill:#9AD3F4}
    .fil59 {fill:#9CD4F5}
    .fil60 {fill:#A0D5F5}
    .fil61 {fill:#A3D6F5}
    .fil62 {fill:#A7D8F6}
    .fil63 {fill:#A9D9F6}
    .fil64 {fill:#ADDBF7}
    .fil65 {fill:#B0DCF7}
    .fil66 {fill:#B3DEF8}
    .fil67 {fill:#B8DFF8}
    .fil69 {fill:white}
    .fil70 {fill:#080808}
   ]]></style>
  </defs>
  <sodipodi:namedview
     id="base"
     pagecolor="#ffffff"
     bordercolor="#666666"
     borderopacity="1.0"
     inkscape:pageopacity="0.0"
     inkscape:pageshadow="2"
     inkscape:zoom="0.175"
     inkscape:cx="151.18364"
     inkscape:cy="-666.93442"
     inkscape:document-units="px"
     inkscape:current-layer="Layer_x0020_1"
     showgrid="false"
     fit-margin-top="50"
     fit-margin-left="50"
     fit-margin-bottom="50"
     fit-margin-right="50"
     units="px"
     inkscape:window-width="1317"
     inkscape:window-height="744"
     inkscape:window-x="49"
     inkscape:window-y="24"
     inkscape:window-maximized="1" />
  <metadata
     id="metadata4674">
    <rdf:RDF>
      <cc:Work
         rdf:about="">
        <dc:format>image/svg+xml</dc:format>
        <dc:type
           rdf:resource="http://purl.org/dc/dcmitype/StillImage" />
        <dc:title></dc:title>
      </cc:Work>
    </rdf:RDF>
  </metadata>
  <g
     inkscape:label="Layer 1"
     inkscape:groupmode="layer"
     id="layer1"
     transform="translate(-63.35742,-242.69187)">
    <g
       style="clip-rule:evenodd;fill-rule:evenodd;image-rendering:optimizeQuality;shape-rendering:geometricPrecision;text-rendering:geometricPrecision;stroke-width:10;stroke-miterlimit:4;stroke-dasharray:none"
       id="g5445"
       transform="translate(209.96329,295.98276)">
      <g
         id="Layer_x0020_1"
         style="stroke-width:10;stroke-miterlimit:4;stroke-dasharray:none">
        <metadata
           id="CorelCorpID_0Corel-Layer" />
        <path
           id="path5225"
           d="M 486.09984,-1.4670153 C 466.15977,17.226144 445.43141,36.791279 438.8758,62.929931 c -6.65301,26.526383 3.93311,56.226569 38.40932,58.267849 33.42744,1.97951 51.67593,-23.4048 45.96942,-51.104682 -3.97705,-19.304761 -27.09517,-50.891055 -37.1547,-71.5603268 z"
           class="fil0"
           inkscape:connector-curvature="0"
           style="fill:#00ff00;stroke:#000000;stroke-width:10;stroke-miterlimit:4;stroke-dasharray:none;stroke-opacity:1" />
        <path
           style="font-style:normal;font-variant:normal;font-weight:normal;font-stretch:normal;font-size:medium;line-height:125%;font-family:Carlito;-inkscape-font-specification:Carlito;letter-spacing:0px;word-spacing:0px;fill:#ff0101;fill-opacity:1;stroke:#000000;stroke-width:10;stroke-linecap:butt;stroke-linejoin:miter;stroke-miterlimit:4;stroke-dasharray:none;stroke-opacity:1"
           d="m -94.10587,56.14658 0,2.5 0,258.10547 36.636719,0 0,-260.60547 -36.636719,0 z"
           id="path5776" />
        <path
           style="font-style:normal;font-variant:normal;font-weight:normal;font-stretch:normal;font-size:medium;line-height:125%;font-family:Carlito;-inkscape-font-specification:Carlito;letter-spacing:0px;word-spacing:0px;fill:#b505ff;fill-opacity:1;stroke:#000000;stroke-width:10;stroke-linecap:butt;stroke-linejoin:miter;stroke-miterlimit:4;stroke-dasharray:none;stroke-opacity:1"
           d="M 803.31641 109.43945 L 803.31641 111.9375 L 803.31641 203.07031 C 798.3179 198.38242 792.79338 194.60699 786.74414 191.82031 C 778.78492 188.03315 769.30332 186.19141 758.36328 186.19141 C 746.28806 186.19141 735.33106 188.60399 725.60938 193.46484 L 725.60352 193.46875 L 725.59766 193.4707 C 716.058 198.30248 707.90869 204.96142 701.22266 213.38086 C 694.53839 221.79808 689.42508 231.79851 685.87109 243.31836 L 685.86914 243.32617 L 685.86523 243.33398 C 682.43289 254.73423 680.72656 267.02551 680.72656 280.18359 C 680.72656 294.98089 682.30049 308.14365 685.49023 319.67578 L 685.49219 319.67969 L 685.49219 319.68359 C 688.67582 331.07122 693.23331 340.71821 699.21289 348.56641 C 705.17726 356.39464 712.3854 362.4203 720.76758 366.54883 L 720.78906 366.55859 L 720.80859 366.57031 C 729.31186 370.57184 738.74817 372.56055 749.01562 372.56055 C 761.84676 372.56055 773.28876 369.70558 783.16797 363.95312 C 791.41807 359.14927 798.86385 352.98225 805.58594 345.63672 L 808.01953 361.45508 L 808.00391 361.33594 C 808.29369 364.08896 809.44513 366.56187 811.50586 368.10742 L 811.56055 368.14844 L 811.61914 368.1875 C 813.56417 369.48418 815.95076 370.04491 818.57812 370.04492 L 839.95312 370.04492 L 839.95312 109.43945 L 803.31641 109.43945 z M 765.55273 215.45703 C 773.25811 215.45703 780.17781 216.94257 786.41406 219.89062 L 786.43164 219.89844 L 786.44727 219.90625 C 792.37947 222.6027 798.01099 227.39356 803.31641 234.3418 L 803.31641 317.57031 C 797.25738 325.32911 790.75676 331.40137 783.8125 335.76953 C 776.93662 340.05018 768.82197 342.21484 759.26172 342.21484 C 752.72855 342.21484 746.98504 341.07223 741.95312 338.83789 C 736.96925 336.50576 732.78122 332.98949 729.29688 328.1582 C 729.29588 328.1562 729.29397 328.15434 729.29297 328.15234 C 725.81296 323.20557 723.04438 316.79664 721.06641 308.89062 C 719.21132 300.99817 718.26172 291.41913 718.26172 280.18359 C 718.26172 258.94688 722.52409 242.91232 730.71094 231.88281 C 738.89979 220.85061 750.22263 215.45703 765.55273 215.45703 z "
           transform="translate(-146.60587,-53.29089)"
           id="path5774" />
        <path
           style="font-style:normal;font-variant:normal;font-weight:normal;font-stretch:normal;font-size:medium;line-height:125%;font-family:Carlito;-inkscape-font-specification:Carlito;letter-spacing:0px;word-spacing:0px;fill:#55f000;fill-opacity:1;stroke:#000000;stroke-width:10;stroke-linecap:butt;stroke-linejoin:miter;stroke-miterlimit:4;stroke-dasharray:none;stroke-opacity:1"
           d="M 293.05859 186.19141 C 280.98335 186.19141 270.02638 188.60399 260.30469 193.46484 C 250.64409 198.29514 242.42899 204.95554 235.73828 213.38086 C 229.05403 221.79808 223.94072 231.79851 220.38672 243.31836 C 216.83129 254.72321 215.0625 267.02074 215.0625 280.18359 C 215.0625 294.98089 216.63643 308.14365 219.82617 319.67578 L 219.82812 319.67969 L 219.82812 319.68359 C 223.01176 331.07121 227.56925 340.71821 233.54883 348.56641 C 239.51826 356.40129 246.79394 362.43022 255.29688 366.55664 L 255.31055 366.5625 L 255.32422 366.56836 C 263.83177 370.5719 273.3275 372.55859 283.71094 372.55859 C 296.04418 372.55859 307.15279 369.95544 316.89258 364.71094 L 316.90234 364.70508 L 316.91406 364.69922 C 324.71449 360.39899 331.78808 354.85943 338.19141 348.22852 L 338.19141 429.35938 L 374.82812 429.35938 L 374.82812 189.24805 L 353.45312 189.24805 C 350.73181 189.24805 348.25782 189.8953 346.33984 191.39648 C 344.42185 192.89766 343.23483 195.1584 342.73242 197.74219 L 342.72656 197.76758 L 341.25195 206.27539 C 335.79056 200.58053 329.71035 195.95991 322.96289 192.58203 C 314.73294 188.28043 304.73484 186.19141 293.05859 186.19141 z M 300.24805 215.45703 C 307.941 215.45703 314.91212 216.99637 321.27148 220.0625 L 321.29492 220.07422 L 321.32031 220.08594 C 327.51035 222.90947 333.12113 227.63864 338.19141 234.33789 L 338.19141 317.57031 C 332.13644 325.3239 325.64019 331.39231 318.70117 335.75977 C 311.69771 340.0492 303.51666 342.21484 293.95703 342.21484 C 287.42846 342.21484 281.62363 341.07381 276.46289 338.83398 C 271.4809 336.50123 267.22821 332.97787 263.625 328.14258 C 260.14795 323.19726 257.38127 316.79265 255.4043 308.89062 C 253.54912 300.99781 252.59766 291.41884 252.59766 280.18359 C 252.59766 258.95539 256.85668 242.92558 265.03711 231.89648 L 265.04102 231.89258 C 265.04302 231.88958 265.04488 231.88581 265.04688 231.88281 C 273.35188 220.85549 284.79998 215.45703 300.24805 215.45703 z "
           transform="translate(-146.60587,-53.29089)"
           id="path5772" />
        <path
           style="font-style:normal;font-variant:normal;font-weight:normal;font-stretch:normal;font-size:medium;line-height:125%;font-family:Carlito;-inkscape-font-specification:Carlito;letter-spacing:0px;word-spacing:0px;fill:#e6d800;fill-opacity:1;stroke:#000000;stroke-width:10;stroke-linecap:butt;stroke-linejoin:miter;stroke-miterlimit:4;stroke-dasharray:none;stroke-opacity:1"
           d="m -1.10978,135.95712 0,2.5 0,178.29493 36.63672,0 0,-180.79493 -36.63672,0 z"
           id="path5770" />
        <path
           style="font-style:normal;font-variant:normal;font-weight:normal;font-stretch:normal;font-size:medium;line-height:125%;font-family:Carlito;-inkscape-font-specification:Carlito;letter-spacing:0px;word-spacing:0px;fill:#00f0c5;fill-opacity:1;stroke:#000000;stroke-width:10;stroke-linecap:butt;stroke-linejoin:miter;stroke-miterlimit:4;stroke-dasharray:none;stroke-opacity:1"
           d="m 265.03475,135.95712 0,2.5 0,111.98243 c 0,10.15711 1.28505,19.51526 3.88282,28.05078 l 0.002,0.004 0.002,0.006 c 2.60188,8.42517 6.47159,15.7492 11.61524,21.89649 l 0.008,0.01 0.01,0.01 c 5.154,6.03394 11.52814,10.7612 19.02929,14.13672 l 0.0215,0.01 0.0234,0.0117 c 7.67248,3.27025 16.46861,4.87305 26.32617,4.87305 12.56604,0 23.73654,-2.59831 33.37109,-7.85352 l 0.004,-0.004 0.006,-0.002 c 8.16588,-4.50171 15.61947,-10.28089 22.42968,-17.16601 l 2.11329,13.74023 -0.0156,-0.11914 c 0.28994,2.75442 1.44404,5.22659 3.50391,6.77149 l 0.0547,0.041 0.0586,0.0391 c 1.91839,1.27892 4.2523,1.85742 6.77929,1.85743 l 21.55274,0 0,-180.79493 -36.63477,0 0,131.09766 c -6.25398,6.91552 -13.00287,12.39858 -20.28125,16.42969 -7.30525,3.99259 -15.18129,5.97851 -23.77539,5.97851 -11.59539,0 -19.73943,-3.32524 -25.20117,-9.86523 -5.40569,-6.73722 -8.24805,-16.35595 -8.24805,-29.1582 l 0,-114.48243 -36.63672,0 z"
           id="path5768" />
        <path
           style="font-style:normal;font-variant:normal;font-weight:normal;font-stretch:normal;font-size:medium;line-height:125%;font-family:Carlito;-inkscape-font-specification:Carlito;letter-spacing:0px;word-spacing:0px;fill:#2d5eff;fill-opacity:1;stroke:#000000;stroke-width:10;stroke-linecap:butt;stroke-linejoin:miter;stroke-miterlimit:4;stroke-dasharray:none;stroke-opacity:1"
           d="m 462.31991,135.95712 0,2.5 0,178.29493 36.63477,0 0,-180.79493 -36.63477,0 z"
           id="path5766"
           inkscape:connector-curvature="0" />
        <path
           style="fill:#5555ff;fill-opacity:1;stroke:#000000;stroke-width:10;stroke-miterlimit:4;stroke-dasharray:none;stroke-opacity:1"
           inkscape:connector-curvature="0"
           class="fil0"
           d="M 22.681369,-1.4670153 C 2.7412994,17.226144 -17.987061,36.791279 -24.542671,62.929931 c -6.65301,26.526383 3.93311,56.226569 38.40932,58.267849 33.42744,1.97951 51.67593,-23.4048 45.96942,-51.104682 C 55.859019,50.788337 32.7409,19.202043 22.681369,-1.4672288 Z"
           id="path5760" />
      </g>
    </g>
  </g>
</svg>
